<svg xmlns="http://www.w3.org/2000/svg" width="800" height="600" viewBox="0 0 800 600">
  <rect width="800" height="600" fill="#111827"/>
  <g stroke="#374151" stroke-width="2">
    <line x1="200" y1="150" x2="400" y2="150"/>
    <line x1="200" y1="150" x2="400" y2="300"/>
    <line x1="200" y1="150" x2="400" y2="450"/>
    <line x1="200" y1="300" x2="400" y2="150"/>
    <line x1="200" y1="300" x2="400" y2="300"/>
    <line x1="200" y1="300" x2="400" y2="450"/>
    <line x1="200" y1="450" x2="400" y2="150"/>
    <line x1="200" y1="450" x2="400" y2="300"/>
    <line x1="200" y1="450" x2="400" y2="450"/>
    <line x1="400" y1="150" x2="600" y2="300"/>
    <line x1="400" y1="300" x2="600" y2="300"/>
    <line x1="400" y1="450" x2="600" y2="300"/>
  </g>
  <circle cx="200" cy="150" r="25" fill="#3b82f6"/>
  <circle cx="200" cy="300" r="25" fill="#3b82f6"/>
  <circle cx="200" cy="450" r="25" fill="#3b82f6"/>
  <circle cx="400" cy="150" r="25" fill="#8b5cf6"/>
  <circle cx="400" cy="300" r="25" fill="#8b5cf6"/>
  <circle cx="400" cy="450" r="25" fill="#8b5cf6"/>
  <circle cx="600" cy="300" r="25" fill="#ec4899"/>
  <text x="400" y="550" font-family="sans-serif" font-size="24" fill="#9ca3af" text-anchor="middle">Deep Learning</text>
</svg>